<svg xmlns="http://www.w3.org/2000/svg" width="45.694" height="45.697" viewBox="0 0 45.694 45.697">
  <path id="Path_61980" data-name="Path 61980" d="M42.322,39.477a36.308,36.308,0,0,1-4.671-.342,35.087,35.087,0,0,1-4.013-1.03,2.468,2.468,0,0,0-2.472.615l-3.718,3.7a3.082,3.082,0,0,1-3.759.476A38.062,38.062,0,0,1,10.964,30.166a3.082,3.082,0,0,1,.476-3.757l3.7-3.721a2.471,2.471,0,0,0,.615-2.473,35.7,35.7,0,0,1-1.031-4.009,36.995,36.995,0,0,1-.341-4.671,2.427,2.427,0,0,0-2.434-2.373H3.428A2.407,2.407,0,0,0,1,11.547v.042A41.7,41.7,0,0,0,13.056,40.8a41.7,41.7,0,0,0,29.21,12.056,2.409,2.409,0,0,0,2.429-2.388V41.907a2.427,2.427,0,0,0-2.373-2.431" transform="translate(0 -8.162)" fill="none" stroke="#c2a57b" stroke-miterlimit="10" stroke-width="2"/>
</svg>
