<svg xmlns="http://www.w3.org/2000/svg" width="49.646" height="49.646" viewBox="0 0 49.646 49.646">
  <g id="Icon_core-chat-bubble" data-name="Icon core-chat-bubble" transform="translate(-0.625 -0.625)">
    <path id="Path_62042" data-name="Path 62042" d="M40.955,35.31A13.781,13.781,0,0,0,45.8,25.066a13.758,13.758,0,0,0-5.342-10.672,19.664,19.664,0,0,0-12.5-4.27,19.66,19.66,0,0,0-12.5,4.27,13.757,13.757,0,0,0-5.342,10.671,13.758,13.758,0,0,0,5.342,10.672,19.66,19.66,0,0,0,12.5,4.27c.627,0,1.258-.028,1.883-.083l1.069.926A20.254,20.254,0,0,0,44.177,45.8H45.8V42.347l-.475-.475a20.185,20.185,0,0,1-4.369-6.562ZM33.038,38.4l-2.145-1.859-.715.088a18.269,18.269,0,0,1-2.217.135c-8.047,0-14.594-5.248-14.594-11.7s6.547-11.7,14.594-11.7,14.594,5.248,14.594,11.7a10.649,10.649,0,0,1-4.515,8.448l-.934.717.431,1.22a23.44,23.44,0,0,0,3.839,6.873A17.01,17.01,0,0,1,33.038,38.4Z" transform="translate(3.972 3.972)" fill="#c2a57b" stroke="transparent" stroke-width="1"/>
    <path id="Path_62043" data-name="Path 62043" d="M5.6,31.678a22.346,22.346,0,0,0,3.528-6.387l.428-1.214-.933-.716A10.037,10.037,0,0,1,4.368,15.4c0-6.083,6.183-11.032,13.783-11.032,5.591,0,10.415,2.679,12.575,6.516.4-.019.8-.03,1.208-.03q1.219,0,2.415.118A14.06,14.06,0,0,0,30.073,5.2,18.756,18.756,0,0,0,18.151,1.125,18.757,18.757,0,0,0,6.229,5.2a13.149,13.149,0,0,0-5.1,10.2,13.162,13.162,0,0,0,4.586,9.754A19.093,19.093,0,0,1,1.6,31.308l-.475.475v3.394H2.747a19.318,19.318,0,0,0,8.636-2.038,15.942,15.942,0,0,1-.512-3.411A16.086,16.086,0,0,1,5.6,31.678Z" fill="#c2a57b" stroke="transparent" stroke-width="1"/>
  </g>
</svg>
